<svg xmlns="http://www.w3.org/2000/svg" viewBox="0 0 714.95 129.56"><defs><style>.cls-1{fill:#ffd040;}.cls-2{fill:#c10230;}</style></defs><title>scitu</title><g id="Layer_3" data-name="Layer 3"><circle id="_Path_" data-name="&lt;Path&gt;" class="cls-1" cx="64.76" cy="64.78" r="63.78"/><rect id="_Rectangle_" data-name="&lt;Rectangle&gt;" class="cls-1" x="51.25" y="101.01" width="24.65" height="9.56"/><g id="_Group_" data-name="&lt;Group&gt;"><path id="_Compound_Path_" data-name="&lt;Compound Path&gt;" class="cls-2" d="M245,290a58.36,58.36,0,1,0-58.35,58.35A58.42,58.42,0,0,0,245,290Zm-13.77,34s0-.06,0-.08c-.36-2-3.11-3.77-4.27-4.43-2-1.16-3.23-2.42-3.4-3.64a2.31,2.31,0,0,1,.26-1.42l.08-.14c.62.46,2.13,1.55,5.79,4.05,1.57,1.07,2.37,2.22,2.39,3.41A3.8,3.8,0,0,1,231.21,324Zm-21.59-2.56a2.16,2.16,0,0,1-1.05,1.29L204,325.32a2.18,2.18,0,0,1-1.65.28,2.34,2.34,0,0,1-1.29-1.36l-.72-1.51.1-.12c.32-.37.63-.71.92-.75a.48.48,0,0,0,0-1c-.29,0-.6-.39-.92-.75a3,3,0,0,0-2.1-1.31v-1.61c3.48-.52,5.73-1.47,7.24-2.77h0l3.52,5.15A2.29,2.29,0,0,1,209.62,321.4Zm.42,1.79a1.4,1.4,0,0,1,.41.06,1.57,1.57,0,0,1,1,.73,1.54,1.54,0,0,1,.15,1.19,1.46,1.46,0,0,1-.73.95l-.3.18-.06,0L205.84,329a1.58,1.58,0,0,1-2.15-.58,1.54,1.54,0,0,1-.15-1.19,1.51,1.51,0,0,1,.73-.95l.21-.13h0l4.55-2.63h0l.21-.12A1.55,1.55,0,0,1,210,323.19ZM199.71,322c-.43.51-.85,1-1.46,1H175.52c-.61,0-1-.47-1.47-1a6.4,6.4,0,0,0-.56-.6,6.4,6.4,0,0,0,.56-.6c.44-.51.86-1,1.47-1h22.73c.61,0,1,.47,1.46,1a8.18,8.18,0,0,0,.57.6A8.18,8.18,0,0,0,199.71,322Zm-23.58,13.59a7.4,7.4,0,0,0,3.05-5c.66,1.55,2.39,2.63,3.95,3.6a9,9,0,0,1,2.73,2.14H174.59A6.89,6.89,0,0,0,176.13,335.57Zm-4.36.07a4.73,4.73,0,0,0,2.75-2.87c.1-.3.19-.6.28-.91a9.83,9.83,0,0,1,1-2.4,8.85,8.85,0,0,1,2.73-2.9v1.65c-.16,3.21-1.14,5.41-2.89,6.54A6.5,6.5,0,0,1,171.77,335.64Zm11.87-2.33c-1.85-1.15-3.77-2.33-3.77-4.13V326.1h6.42v6.1a.36.36,0,0,0,.36.36.37.37,0,0,0,.37-.36v-6.1h6.25c0,.46,0,1.34,0,3.09s-1.92,3-3.77,4.13a10.38,10.38,0,0,0-2.94,2.3A10.32,10.32,0,0,0,183.64,333.31Zm6.38.83c1.61-1,3.4-2.12,4-3.76a7.49,7.49,0,0,0,3.09,5.19,6.62,6.62,0,0,0,1.53.71H187.28A8.93,8.93,0,0,1,190,334.14Zm7.61.61c-1.75-1.13-2.73-3.33-2.89-6.51v-1.76a8.1,8.1,0,0,1,2.9,3,9.83,9.83,0,0,1,1,2.4c.1.31.19.61.29.91a4.72,4.72,0,0,0,2.73,2.86A6.56,6.56,0,0,1,197.63,334.75Zm-10.77-9.66a.38.38,0,0,0-.21-.07.35.35,0,0,0-.2.07H176v-1.16h21.42v1.16Zm-9.25,1h.25a10.18,10.18,0,0,0-2.71,3,10.35,10.35,0,0,0-1,2.57c-.09.29-.18.58-.28.87a4.07,4.07,0,0,1-2.63,2.57,9.15,9.15,0,0,0,.77-3.31,8.17,8.17,0,0,1,.28-1.7A6.12,6.12,0,0,1,177.61,326.1Zm26.11,11.14a1.26,1.26,0,0,1,0,2.51h-34.1a1.26,1.26,0,0,1,0-2.51Zm-4.14-4.71c-.1-.29-.18-.58-.27-.87a10.75,10.75,0,0,0-1-2.57,10.18,10.18,0,0,0-2.71-3h.07a6.14,6.14,0,0,1,5.37,4,9,9,0,0,1,.27,1.7A9.88,9.88,0,0,0,202,335,4.05,4.05,0,0,1,199.58,332.53ZM172.41,320.9a.48.48,0,0,0,0,1,1.38,1.38,0,0,1,.68.48l-.92,1.9a2.31,2.31,0,0,1-1.28,1.35,2.18,2.18,0,0,1-1.65-.27l-4.35-2.51-.21-.12a2.16,2.16,0,0,1-1.06-1.3,2.27,2.27,0,0,1,.53-1.79l3.54-5.2c1.51,1.32,3.77,2.3,7.29,2.82v1.68a3.53,3.53,0,0,0-1.66,1.25C173,320.51,172.7,320.86,172.41,320.9Zm-2.86,7.53a1.57,1.57,0,0,1-2.15.57l-4.64-2.68h0l-.34-.19a1.57,1.57,0,0,1-.73-1,1.6,1.6,0,0,1,.16-1.19,1.57,1.57,0,0,1,1.36-.78,1.51,1.51,0,0,1,.79.21l4.56,2.63.21.12h0l.22.13A1.58,1.58,0,0,1,169.55,328.43Zm-22-19.27a1.54,1.54,0,0,1-.16-1.19,1.53,1.53,0,0,1,.73-1,1.55,1.55,0,0,1,.78-.21,1.4,1.4,0,0,1,.41.05,1.57,1.57,0,0,1,1,.73l2.88,5a1.54,1.54,0,0,1,.16,1.19,1.53,1.53,0,0,1-.73,1,1.57,1.57,0,0,1-2.15-.57Zm1.26,4.27-5.4,3.81-.38.26-.25.18-.21.15c-1.61,1.12-3.75.48-4.54.18.13-.84.64-3,2.42-3.85l6.93-3.22Zm2.42-6.1a2.19,2.19,0,0,1-.27-1.65,2.28,2.28,0,0,1,1.36-1.29l10-4.84c.12.28.25.57.36.89a39.42,39.42,0,0,1,1.45,5.81l.21,1.09L157,312.42a2.33,2.33,0,0,1-1.78.53,2.17,2.17,0,0,1-1.29-1.06Zm12.41-7.21a10.05,10.05,0,0,0-4.52-5.46c-1.11-.74-2-1.33-2.32-2.5A8.63,8.63,0,0,0,161,294.5c3.26.91,4.53,2.35,5.44,6.16.27,1.11.43,2.31.61,3.59.67,4.84,1.42,10.22,7.74,12-7.91-1.28-8.63-5-9.62-10.15A40.07,40.07,0,0,0,163.66,300.12ZM156.79,294h0l-7.09.54a2.33,2.33,0,0,1-1.81-.44,2.2,2.2,0,0,1-.59-1.57v-5.26a2.16,2.16,0,0,1,.59-1.56,2,2,0,0,1,1.43-.46l.39,0,24.66,1.86h0l2.65.2h0l.35,0v5.16c-.7-.42-1.36-.85-1.43-1.21a.48.48,0,0,0-.95,0c-.11.6-1.06,1.19-2,1.76l-.23.15a8,8,0,0,0-1.18-.85c-.49-.3-1-.64-1.09-.92a.48.48,0,0,0-.95,0c-.05.28-.61.62-1.1.92a6.06,6.06,0,0,0-1.29,1,13.52,13.52,0,0,0-5.4-1.31c-2.63-.15-4.21-.59-5.29-1.49a.47.47,0,0,0-.51-.06.49.49,0,0,0-.28.44A4.27,4.27,0,0,0,156.79,294Zm-9.22-23.31,2.89-5a1.55,1.55,0,0,1,.95-.73,1.52,1.52,0,0,1,.42-.06,1.62,1.62,0,0,1,.77.21,1.59,1.59,0,0,1,.58,2.15l-2.89,5a1.57,1.57,0,0,1-2.72-1.57Zm-6.17-4.54L141,266l-.28-.13-.24-.1c-1.77-.84-2.29-3-2.42-3.85.79-.31,2.92-1,4.54.17l6.25,4.39L147.4,269Zm9.86,6.37,2.63-4.56a2.21,2.21,0,0,1,1.29-1.06,1.73,1.73,0,0,1,.32,0,2.69,2.69,0,0,1,1.48.56l20.42,13.95.35.51h0a.44.44,0,0,0-.06.23.49.49,0,0,0,.42.48c.09,0,.28.24.42.41A1.94,1.94,0,0,0,180,284h.39a.88.88,0,0,0-.05.15c0,.26-.63.61-1.09.89a4.44,4.44,0,0,0-1.67,1.42l-3-.22L152.34,275.5a2.26,2.26,0,0,1-1.35-1.29A2.15,2.15,0,0,1,151.26,272.56Zm67.91-24.67a1.57,1.57,0,0,1,1.57,1.57v1.29H152.51v-1.29a1.57,1.57,0,0,1,1.57-1.57Zm-36.46-1a1.55,1.55,0,0,1,1-.4h5.77a1.55,1.55,0,0,1,1,.4Zm38,4.8v2.47H152.51v-2.47Zm0,3.44v1.23a1.57,1.57,0,0,1-1.57,1.57H154.08a1.57,1.57,0,0,1-1.57-1.57v-1.23ZM199,269.64c0,3.46-.82,5.95-2.55,7.38a6.23,6.23,0,0,1-3.27,1.33,2.82,2.82,0,0,0,.31-.21c1.94-1.46,2.93-4.94,2.93-10.35a7.62,7.62,0,0,1,5.74-7.28l-.32.26C199.17,263.16,199,268.16,199,269.64Zm26.65,1.1a1.54,1.54,0,0,1,.16,1.19,1.53,1.53,0,0,1-.73.95,1.54,1.54,0,0,1-1.19.16,1.57,1.57,0,0,1-1-.73l-.12-.22h0l-1.32-2.28-1.44-2.5a1.54,1.54,0,0,1-.16-1.19,1.53,1.53,0,0,1,.73-.95,1.51,1.51,0,0,1,.79-.21,1.57,1.57,0,0,1,1.36.78Zm-1.26-4.27,5.39-3.81.39-.26.25-.18.21-.15c1.61-1.12,3.75-.48,4.54-.18-.13.84-.65,3-2.42,3.85L225.85,269Zm-2.8,5.44.38.66a2.19,2.19,0,0,1,.27,1.65,2.28,2.28,0,0,1-1.36,1.29l-22.28,10.72-2.71.21h0a4.36,4.36,0,0,0-1.65-1.42,4.16,4.16,0,0,1-1-.76V284h.52a1.94,1.94,0,0,0,1.48-.92c.13-.17.32-.4.42-.41a.49.49,0,0,0,.42-.48.48.48,0,0,0-.4-.48l.18-.26,20.43-13.94a2.3,2.3,0,0,1,1.78-.53,2.21,2.21,0,0,1,1.3,1.07Zm1.93,13.41a2.33,2.33,0,0,1,1.81.44,2.19,2.19,0,0,1,.59,1.56v5.27a2.16,2.16,0,0,1-.59,1.56,2.3,2.3,0,0,1-1.82.44l-7-.53a4.23,4.23,0,0,0,1.12-3.1.48.48,0,0,0-.27-.44.49.49,0,0,0-.52.06c-1.07.9-2.65,1.34-5.29,1.49a13.64,13.64,0,0,0-5.23,1.24,7,7,0,0,0-1.22-.9c-.49-.3-1-.64-1.09-.92a.48.48,0,0,0-.95,0c-.05.28-.61.62-1.1.92a6.47,6.47,0,0,0-1.27.95l-.4-.25c-.92-.57-1.87-1.16-2-1.76a.48.48,0,0,0-1,0c-.08.44-.6.87-1.23,1.29v-5.26l7.31-.55h0Zm-43.68,10.86a3.79,3.79,0,0,0-1,2.46v16.79c-2.76-1.53-3.08-5.94-3.08-7.85V296.64a.36.36,0,1,0-.72,0v10.94c0,1.72.25,5.3,2.15,7.43a6.76,6.76,0,0,1-2.85-4.13,35,35,0,0,1-.71-4.21c-.44-3.25-.92-6.89-2.69-9.74v-.27c0-1.16,1.28-2,2.52-2.72a8.13,8.13,0,0,0,2-1.52,8.45,8.45,0,0,0,1.62,1.13C178.29,294.24,179.59,295,179.87,296.18Zm15.57-36.09c-.25.16-.48.34-.71.52a7.81,7.81,0,0,0-.95-.63c-.46-.28-1-.63-1.09-.9a.88.88,0,0,0-.05-.15h5.72A8.76,8.76,0,0,0,195.44,260.09Zm7-.38c-3.35,1-6.68,3.55-6.68,8.08,0,6.41-1.42,8.84-2.62,9.76a2.46,2.46,0,0,1-1.56.55c.19-1.22.59-4.19,1.31-11.36.27-2.72,1.32-4.68,3.11-5.84A10.4,10.4,0,0,1,202.4,259.71Zm-9.12,1.09c.26.16.52.32.75.49a8.13,8.13,0,0,0-1.78,3.37,3.43,3.43,0,0,0-.14-.59A5.28,5.28,0,0,0,190,261.6a5.2,5.2,0,0,1,1.11-.8,6.29,6.29,0,0,0,1.07-.74A5.83,5.83,0,0,0,193.28,260.8Zm-1.54-1.72c-.05.27-.63.62-1.09.9a5.8,5.8,0,0,0-1.41,1.06l-.09-.07c-1-.65-1.85-1.26-2-1.92,0-.05,0-.08,0-.12h4.66A.47.47,0,0,0,191.74,259.08Zm-3.13,2.69c1.09.75,2.23,1.53,2.59,2.6s.45,5,0,8.62l-.71,5.42H187V263.25a.37.37,0,0,0-.36-.37.38.38,0,0,0-.37.37v15.16H183l-.72-5.43c-.41-3.82-.34-7.6,0-8.61s1.49-1.86,2.59-2.61a8.46,8.46,0,0,0,1.9-1.55A8.78,8.78,0,0,0,188.61,261.77Zm-2.38-2.72c-.12.65-1,1.27-2,1.91l-.08.06a6,6,0,0,0-1.35-1c-.46-.28-1-.63-1.09-.89a.46.46,0,0,0-.08-.19h4.61A.25.25,0,0,0,186.23,259.05Zm-3.89,1.79a6.14,6.14,0,0,1,1,.73,5.38,5.38,0,0,0-2.09,2.5q-.06.21-.12.51a8.1,8.1,0,0,0-1.72-3.25c.23-.17.49-.33.75-.49a6.47,6.47,0,0,0,1.07-.74A6.47,6.47,0,0,0,182.34,260.84Zm-1.55-1.72c0,.26-.62.61-1.09.89a10.55,10.55,0,0,0-.95.64,6.84,6.84,0,0,0-.74-.56,8.84,8.84,0,0,0-2.92-1.16h5.79A.48.48,0,0,0,180.79,259.12Zm-3.31,1.78c1.79,1.16,2.84,3.12,3.12,5.84.72,7.13,1.11,10.11,1.31,11.35a2.45,2.45,0,0,1-1.81-.54c-1.19-.92-2.62-3.35-2.62-9.76,0-4.51-3.3-7.05-6.63-8.06A10.52,10.52,0,0,1,177.48,260.9Zm3.89,18.48h10.91v1H181.37Zm12.39,1.93c.25,0,.44.21.73.56a3.07,3.07,0,0,0,.24.29,3,3,0,0,0-.24.28c-.29.35-.48.56-.73.56H180c-.25,0-.44-.21-.73-.56a3,3,0,0,0-.24-.28,3.07,3.07,0,0,0,.24-.29c.29-.35.48-.56.73-.56Zm4.1,11.16a8.08,8.08,0,0,0,1.94,1.47c1.24.77,2.52,1.56,2.52,2.72V297c-1.75,2.84-2.23,6.47-2.66,9.7a37,37,0,0,1-.72,4.21,6.64,6.64,0,0,1-3.29,4.39c2.13-2.08,2.4-5.9,2.4-7.69V296.64a.37.37,0,0,0-.37-.36.36.36,0,0,0-.36.36v10.94c0,1.91-.31,6.33-3.08,7.86v-16.8a3.69,3.69,0,0,0-.82-2.28c.2-1,1.36-1.72,2.49-2.42A8.35,8.35,0,0,0,197.86,292.47Zm3.66,1.44a6.61,6.61,0,0,1,1-.67,6.87,6.87,0,0,0,1.06-.76,6.87,6.87,0,0,0,1.06.76,6.67,6.67,0,0,1,.83.56,9.56,9.56,0,0,0-2.3,2A4.21,4.21,0,0,0,201.52,293.91Zm-6.34-.66a7.29,7.29,0,0,0-2.28,1.92v-8.12a.37.37,0,0,0-.37-.36.36.36,0,0,0-.36.36v8.09a18.74,18.74,0,0,0-2-1.33v-6.55c0-.56.72-1,1.42-1.41a5.94,5.94,0,0,0,1.07-.75,5.94,5.94,0,0,0,1.07.75c.69.42,1.41.85,1.41,1.41Zm-8.69,2.81a.36.36,0,0,0-.36.36v20.11h-4.64l-.49-.12c-.35-.08-.73-.17-1.13-.28V298.64c0-1.8,1.92-3,3.77-4.13a10.48,10.48,0,0,0,2.93-2.29,10.54,10.54,0,0,0,2.94,2.29c1.85,1.15,3.77,2.33,3.77,4.13,0,3.19,0,14.41,0,17.54-.32.09-.64.16-.93.23l-.48.12h-5V296.42A.36.36,0,0,0,186.49,296.06Zm1.34-10.21c.7.42,1.42.85,1.42,1.41v5.94c-1.13-.72-2.06-1.43-2.2-2.22a.44.44,0,0,0-.19-.3.43.43,0,0,0,.06-.18v-3.45a.37.37,0,0,0-.37-.36.36.36,0,0,0-.36.36v3.45a.32.32,0,0,0,.07.19.52.52,0,0,0-.16.29c-.13.7-.87,1.34-1.82,2v-5.7c0-.56.72-1,1.41-1.41a5.94,5.94,0,0,0,1.07-.75A5.94,5.94,0,0,0,187.83,285.85Zm-.65-1.88h5.1a.47.47,0,0,0-.06.15c0,.26-.62.61-1.09.89a5.75,5.75,0,0,0-1.4,1.06,5.75,5.75,0,0,0-1.4-1.06c-.47-.28-1.05-.63-1.09-.89A.44.44,0,0,0,187.18,284Zm-.9.16c0,.26-.62.61-1.09.89a5.75,5.75,0,0,0-1.4,1.06,5.75,5.75,0,0,0-1.4-1.06,4.08,4.08,0,0,1-1-.76V284h5Zm-4.39,1.72c.7.42,1.42.85,1.42,1.41v6.31l-.18.11A22.89,22.89,0,0,0,181,295.1v-8.05a.36.36,0,1,0-.72,0v7.79a6.94,6.94,0,0,0-2-1.69v-5.89c0-.56.72-1,1.42-1.41a5.85,5.85,0,0,0,1.06-.75A6.32,6.32,0,0,0,181.89,285.85Zm-11.7,9.95a9.05,9.05,0,0,0-2.16-1.91,6.76,6.76,0,0,1,.94-.65,6.41,6.41,0,0,0,1.06-.76,6.87,6.87,0,0,0,1.06.76,7.86,7.86,0,0,1,.85.57A4.39,4.39,0,0,0,170.19,295.8Zm2.54,11a35.28,35.28,0,0,0,.74,4.33,7.62,7.62,0,0,0,3.36,4.77c-7.59-1-8.35-6.47-9.08-11.74-.18-1.29-.35-2.52-.62-3.66-1-4-2.47-5.72-6-6.69a9.68,9.68,0,0,1-2.73-1.22,16.8,16.8,0,0,0,3.28.45C171,293.55,171.9,300.59,172.73,306.79ZM176,317.67h21.42v1.16H176Zm20.63-1.81a7.66,7.66,0,0,0,3.3-4.74,37.29,37.29,0,0,0,.74-4.33c.82-6.2,1.76-13.24,11-13.76a16.9,16.9,0,0,0,3-.38A9.65,9.65,0,0,1,212,293.8c-3.49,1-5,2.66-6,6.69-.27,1.14-.44,2.37-.62,3.66C204.67,309.36,203.92,314.73,196.58,315.86Zm-1.42-35.13-.24.17a1.61,1.61,0,0,0-1.16-.56h-.52v-1a7.24,7.24,0,0,0,3.85-1.56,3,3,0,0,0,.26-.25Zm7.35-19.23a4.63,4.63,0,0,1,3.86-1,.49.49,0,0,0,.22-.94,20.53,20.53,0,0,0-2.6-.62h5.67a2.65,2.65,0,0,1-.56,1.37l-10,14.63a13.51,13.51,0,0,0,.88-5.31C200,268.25,200.11,263.61,202.51,261.5Zm-33-2.57a19.51,19.51,0,0,0-2.6.62.48.48,0,0,0,.22.94,4.65,4.65,0,0,1,3.86,1c2.39,2.11,2.53,6.75,2.51,8.12a12.2,12.2,0,0,0,1.34,6.25l-10.64-15.58a2.77,2.77,0,0,1-.55-1.36Zm5,10.71c0-1.48-.14-6.48-2.84-8.87l-.14-.11a7.57,7.57,0,0,1,5.32,7.13c0,5.41,1,8.89,2.92,10.35l.25.17a6.18,6.18,0,0,1-3-1.28C175.24,275.59,174.38,273.11,174.42,269.64Zm1.94,8.13a7.21,7.21,0,0,0,4,1.57v1H180a1.78,1.78,0,0,0-1.35.76h0l-.56-.38-2.67-3.9h0A7.6,7.6,0,0,0,176.36,277.77Zm21.71,38.53c6.6-1.66,7.36-7.13,8-12.05.18-1.28.35-2.48.61-3.59.91-3.81,2.19-5.25,5.45-6.16a8.34,8.34,0,0,0,4.19-2.38.24.24,0,0,0,.06-.11.91.91,0,0,0,.17-.09c-.28,1.34-1.2,1.95-2.39,2.74a10.1,10.1,0,0,0-4.52,5.46,38.76,38.76,0,0,0-1.48,5.95C207.19,311.31,206.46,315.1,198.07,316.3Zm11.08-10.05a38.12,38.12,0,0,1,1.44-5.81c.11-.3.23-.57.35-.84l10,4.8a2.27,2.27,0,0,1,1.34,1.29,2.15,2.15,0,0,1-.27,1.65l-2.63,4.56a2.2,2.2,0,0,1-1.29,1.06,2.34,2.34,0,0,1-1.8-.53l-7.35-5h0C209,307,209.07,306.64,209.15,306.25Zm10.92,6.35.12-.22h0l1.31-2.28,1.45-2.5a1.57,1.57,0,0,1,2.72,1.57l-2.89,5a1.55,1.55,0,0,1-.95.73,1.57,1.57,0,0,1-1.77-2.3Zm11.79,1.11.41.2.23.1.29.13c1.77.84,2.29,3,2.42,3.85-.79.3-2.92.95-4.54-.17l-6.25-4.39,1.43-2.49Zm1,8.87a3.6,3.6,0,0,0,.1-.88,4.15,4.15,0,0,0-.81-2.32,5,5,0,0,0,.67,0,7.61,7.61,0,0,0,2.37-.41C234.51,320.23,233.73,321.42,232.91,322.58Zm3.2-5.07a7.3,7.3,0,0,0-1.2-2.81l.46,0a3.86,3.86,0,0,0,1.94-.49,3.71,3.71,0,0,0,.74-.54C237.45,315,236.8,316.27,236.11,317.51Zm.73-4.11a4.28,4.28,0,0,1-3.82-.22l-.77-.35c-3.68-1.76-5.28-2.49-6-2.78v0a2.35,2.35,0,0,1,1.15-1c1.15-.47,2.83-.09,4.87,1.12,1.15.68,4,2.18,6,1.48l.08,0A3.75,3.75,0,0,1,236.84,313.4Zm2.91-3.77a.51.51,0,0,0-.31-.24.48.48,0,0,0-.56.31,1.47,1.47,0,0,1-.92,1c-1.26.46-3.49-.43-5.15-1.41-2.34-1.38-4.27-1.78-5.72-1.17a1.33,1.33,0,0,0-.24.11,2.53,2.53,0,0,0-3.55-2.13,2.68,2.68,0,0,0-.11-.67,3.19,3.19,0,0,0-1.86-1.87l-10-4.79a9.58,9.58,0,0,1,3.36-3.27c.26-.17.51-.34.75-.52l8,.6.47,0a3,3,0,0,0,2.08-.71,2.37,2.37,0,0,0,.43-.54,2.56,2.56,0,0,0,2.05,1.05,2.53,2.53,0,0,0,2.1-1.12l.14.21c1,1.25,2.84,1.86,5.55,1.85,1.95,0,4.3.33,5.17,1.35a1.51,1.51,0,0,1,.31,1.3.48.48,0,0,0,.33.55l.14,0a.48.48,0,0,0,.24-.07A55.48,55.48,0,0,1,239.75,309.63Zm-12.84-16.79v-5.77a1.58,1.58,0,0,1,3.15,0v5.77a1.58,1.58,0,0,1-3.15,0Zm11.51-6-.83.08c-4.07.31-5.83.49-6.57.58v-.17a2.39,2.39,0,0,1,.49-1.36c.74-.95,2.34-1.45,4.62-1.45h.14c1.32,0,4.59-.13,5.91-1.7l.06-.06a3.74,3.74,0,0,1-.4,2.36A4.25,4.25,0,0,1,238.42,286.87Zm4.3,3.07c-.53.66-2.06,2.28-4,2.12l-7.61-.68v-2.87l6.6-.6.44,0,.3,0,.27,0C240.65,287.65,242.19,289.28,242.72,289.94ZM238.06,293c1.89.14,3.16.73,3.78,1.76a3.74,3.74,0,0,1,.4,2.36l-.06-.06c-1.27-1.52-4.35-1.7-5.77-1.7h-.14c-2.37,0-4-.48-4.76-1.45a2.41,2.41,0,0,1-.49-1.36v-.17C231.79,292.46,233.65,292.65,238.06,293Zm5,2.12a4,4,0,0,0-.37-.85,4.07,4.07,0,0,0-1.87-1.61,7.1,7.1,0,0,0,2.47-1.86C243.25,292.25,243.17,293.68,243,295.11Zm0-10.32c.13,1.42.21,2.85.23,4.3a7.08,7.08,0,0,0-2.45-1.85,4.11,4.11,0,0,0,1.85-1.6A4,4,0,0,0,243,284.79Zm-4.16-14.59a.48.48,0,0,0,.56.31.51.51,0,0,0,.31-.24,56.76,56.76,0,0,1,2.73,10.16.53.53,0,0,0-.39-.05.48.48,0,0,0-.33.55,1.51,1.51,0,0,1-.31,1.3c-.87,1-3.22,1.38-5.17,1.35-2.71,0-4.59.6-5.55,1.85l-.15.21a2.53,2.53,0,0,0-2.09-1.11,2.56,2.56,0,0,0-2.05,1.05,2.13,2.13,0,0,0-.43-.53,3.16,3.16,0,0,0-2.54-.69L201.27,286l20.06-9.64a3.2,3.2,0,0,0,1.86-1.88,2.29,2.29,0,0,0,.11-.67,2.32,2.32,0,0,0,.37.13,2.5,2.5,0,0,0,.66.09,2.53,2.53,0,0,0,2.44-1.88,2,2,0,0,0,.08-.48,1.75,1.75,0,0,0,.24.11,3.73,3.73,0,0,0,1.44.27,8.75,8.75,0,0,0,4.28-1.45c1.66-1,3.89-1.86,5.15-1.4A1.47,1.47,0,0,1,238.88,270.2Zm-.59-1.88c-1.93-.7-4.82.8-6,1.48-2,1.2-3.71,1.59-4.85,1.13a2.37,2.37,0,0,1-1.18-1.07h0c.71-.31,2.41-1.07,6.4-3,1.71-.82,3.1-.94,4.15-.36a3.75,3.75,0,0,1,1.53,1.85Zm-.24-2.12a3.71,3.71,0,0,0-.74-.54,4.05,4.05,0,0,0-2.42-.46,7.19,7.19,0,0,0,1.21-2.83C236.8,263.62,237.45,264.9,238.05,266.2Zm-5.14-8.88c.82,1.16,1.59,2.34,2.32,3.56a7.07,7.07,0,0,0-3-.37,4.21,4.21,0,0,0,.8-2.31A3.6,3.6,0,0,0,232.91,257.32Zm-1.7-1.39a3.8,3.8,0,0,1,.83,2.25,4.31,4.31,0,0,1-2.11,3.22l-.66.46c-3.38,2.31-4.81,3.34-5.41,3.79l-.08-.15a2.24,2.24,0,0,1-.26-1.39c.16-1.23,1.34-2.49,3.4-3.66,1.16-.66,3.91-2.41,4.27-4.43C231.2,256,231.2,256,231.21,255.93ZM222,246.72a.49.49,0,0,0,.64,0,.47.47,0,0,0,.16-.32,56.78,56.78,0,0,1,7.39,7.4.53.53,0,0,0-.32.15.49.49,0,0,0,0,.64,1.49,1.49,0,0,1,.38,1.28c-.24,1.32-2.11,2.81-3.79,3.76-2.37,1.34-3.68,2.81-3.89,4.37a2.46,2.46,0,0,0,0,.26,2.53,2.53,0,0,0-3.62,2,2.43,2.43,0,0,0-.64-.24,3.21,3.21,0,0,0-2.55.67l-18.38,12.55,12.55-18.38a3.6,3.6,0,0,0,.73-1.92h8.54a2.54,2.54,0,0,0,2.54-2.54v-6.93a2.54,2.54,0,0,0-2.54-2.54l.33,0a3,3,0,0,1,1.22-.62A1.5,1.5,0,0,1,222,246.72Zm-1.45-1.34a4.83,4.83,0,0,0-2.45,1.54H215c1.06-1.56,2.21-2.37,3.41-2.38a3.82,3.82,0,0,1,2.25.83Zm-1.29-1.72a3.84,3.84,0,0,0-.83-.09h-.05a4.11,4.11,0,0,0-2.33.81,7.06,7.06,0,0,0-.37-3C216.9,242.07,218.1,242.84,219.26,243.66Zm-4.77,2.25-.71,1h-4.41l1-2.22.2-.39.11-.27.12-.25c.84-1.78,3-2.29,3.85-2.42C215,242.16,215.61,244.29,214.49,245.91Zm-.3-5.44a7,7,0,0,0-2.81,1.19,4,4,0,0,0-.47-2.4,4,4,0,0,0-.53-.74Q212.32,239.42,214.19,240.47Zm-4.12-.74c.55,1,.47,2.26-.21,3.82l-.35.77c-.49,1-.9,1.87-1.24,2.6h-2.65a10.27,10.27,0,0,1,1.15-2.67c.68-1.15,2.19-4,1.49-6l0-.09A3.78,3.78,0,0,1,210.07,239.73Zm-15.72-4.6a1.5,1.5,0,0,1,1.3-.31.48.48,0,0,0,.54-.33.44.44,0,0,0-.05-.39,56.29,56.29,0,0,1,10.16,2.72.52.52,0,0,0-.23.31.48.48,0,0,0,.31.56,1.51,1.51,0,0,1,1,.92c.46,1.27-.43,3.49-1.41,5.15a10.79,10.79,0,0,0-1.32,3.16H191.77a2.49,2.49,0,0,0-.83-.93c.07-.05.14-.09.21-.15,1.25-1,1.86-2.82,1.84-5.55C193,238.36,193.32,236,194.35,235.13Zm-.56-.8-.07.06c-1.57,1.32-1.71,4.58-1.7,5.91,0,2.36-.48,4-1.45,4.77a2.27,2.27,0,0,1-1.36.48h-.16c.09-.77.28-2.62.61-7,.14-1.89.74-3.16,1.76-3.77A3.85,3.85,0,0,1,193.79,234.33Zm-2-.8a3.76,3.76,0,0,0-.85.38,4,4,0,0,0-1.6,1.86,7,7,0,0,0-1.86-2.46C188.92,233.33,190.36,233.4,191.78,233.53Zm-5.16.32c.66.54,2.28,2.06,2.12,4l-.68,7.61h-2.87l-.6-6.58c0-.15,0-.3,0-.46s0-.2,0-.31l0-.26C184.33,235.92,186,234.39,186.62,233.85Zm-.86-.54a7.15,7.15,0,0,0-1.84,2.44,4.08,4.08,0,0,0-1.6-1.84,3.76,3.76,0,0,0-.85-.38C182.88,233.4,184.32,233.33,185.76,233.31Zm-3.93,1.43a4.27,4.27,0,0,1,1.72,3.41l.08.85c.31,4.06.48,5.81.57,6.55H184a2.32,2.32,0,0,1-1.35-.47c-1-.76-1.49-2.41-1.46-4.78,0-1.33-.13-4.59-1.7-5.91l-.07-.06A3.85,3.85,0,0,1,181.83,234.74Zm-15.93,3.87a1.51,1.51,0,0,1,1-.92.48.48,0,0,0,.31-.56.52.52,0,0,0-.23-.31,56.29,56.29,0,0,1,10.16-2.72.44.44,0,0,0-.05.39.48.48,0,0,0,.54.33,1.53,1.53,0,0,1,1.31.31c1,.86,1.37,3.23,1.35,5.16,0,2.73.59,4.59,1.84,5.55a1.43,1.43,0,0,0,.22.15,2.53,2.53,0,0,0-.82.93H168.63a10.79,10.79,0,0,0-1.32-3.16C166.33,242.1,165.45,239.87,165.9,238.61Zm-.88-.41,0,.09c-.69,1.92.81,4.81,1.49,6a10.27,10.27,0,0,1,1.15,2.67H165c-.39-.83-.86-1.82-1.44-3-.82-1.71-.95-3.11-.36-4.15A3.74,3.74,0,0,1,165,238.2Zm-2.15.32a3.94,3.94,0,0,0-1,3.16,7.06,7.06,0,0,0-2.83-1.2C160.3,239.78,161.57,239.13,162.87,238.52Zm-4.3,2.85c.84.14,3,.65,3.85,2.42l1.45,3.13h-4.42l-.12-.17c-.08-.12-.17-.24-.25-.37l-.18-.25-.16-.21C157.62,244.3,158.27,242.17,158.57,241.37Zm-1,0a7.09,7.09,0,0,0-.37,3,4,4,0,0,0-2.31-.8,3.49,3.49,0,0,0-.86.08Q155.74,242.44,157.55,241.34Zm-2.73,3.2h0c1.12,0,2.2.73,3.22,2.11l.19.27h-3.12a4.83,4.83,0,0,0-2.45-1.54h-.09A3.74,3.74,0,0,1,154.82,244.54Zm-11.44,9.39a.53.53,0,0,0-.32-.15,56.78,56.78,0,0,1,7.39-7.4.47.47,0,0,0,.16.32.49.49,0,0,0,.64,0,1.5,1.5,0,0,1,1.28-.39,3,3,0,0,1,1.22.62l.33,0a2.54,2.54,0,0,0-2.54,2.54v6.93a2.54,2.54,0,0,0,2.54,2.54h8.55a3.65,3.65,0,0,0,.73,1.91l12.55,18.38-18.38-12.54A3.19,3.19,0,0,0,155,266a2.73,2.73,0,0,0-.64.24,2.71,2.71,0,0,0-.06-.38,2.52,2.52,0,0,0-1.18-1.54,2.55,2.55,0,0,0-2.38-.09,2.11,2.11,0,0,0,0-.25c-.21-1.56-1.52-3-3.88-4.37-1.68-.95-3.56-2.44-3.8-3.76a1.49,1.49,0,0,1,.38-1.28A.49.49,0,0,0,143.38,253.93Zm-1.34,2s0,.06,0,.08c.36,2,3.11,3.77,4.27,4.43,2,1.16,3.23,2.42,3.4,3.64a2.33,2.33,0,0,1-.26,1.42l-.08.14c-.62-.46-2.14-1.55-5.79-4-1.57-1.07-2.37-2.22-2.39-3.41A3.8,3.8,0,0,1,142,255.94Zm-1.7,1.38a3.6,3.6,0,0,0-.1.88,4.09,4.09,0,0,0,.82,2.32,7.33,7.33,0,0,0-3.05.37C138.74,259.67,139.52,258.48,140.34,257.32Zm-3.2,5.07a7.26,7.26,0,0,0,1.19,2.81,4.06,4.06,0,0,0-2.39.46,3.71,3.71,0,0,0-.74.54C135.8,264.9,136.45,263.63,137.14,262.39Zm-.73,4.11a4.28,4.28,0,0,1,3.82.21l.76.36c3.68,1.76,5.29,2.48,6,2.78v0a2.35,2.35,0,0,1-1.15,1.05c-1.15.47-2.83.08-4.87-1.12a11,11,0,0,0-4.85-1.66,3.21,3.21,0,0,0-1.12.18l-.08,0A3.79,3.79,0,0,1,136.41,266.5Zm-2.91,3.77a.51.51,0,0,0,.31.24.49.49,0,0,0,.56-.31,1.47,1.47,0,0,1,.92-1c1.26-.46,3.49.43,5.15,1.4a8.75,8.75,0,0,0,4.28,1.45,3.73,3.73,0,0,0,1.44-.27,1.33,1.33,0,0,0,.24-.11,2.53,2.53,0,0,0,2.53,2.35,2.65,2.65,0,0,0,1-.22,2.27,2.27,0,0,0,.1.67,3.19,3.19,0,0,0,1.86,1.87L172,286l-22.19-1.68a3.25,3.25,0,0,0-2.55.69,2.37,2.37,0,0,0-.43.54,2.53,2.53,0,0,0-4.15.07l-.14-.21c-1-1.25-2.84-1.87-5.55-1.85-1.93,0-4.3-.33-5.17-1.35a1.51,1.51,0,0,1-.31-1.3.48.48,0,0,0-.33-.55.53.53,0,0,0-.39.05A56.76,56.76,0,0,1,133.5,270.27Zm12.84,16.79v5.77a1.58,1.58,0,0,1-3.15,0v-5.77a1.58,1.58,0,0,1,3.15,0Zm-11.52,6,.85-.08c4.07-.31,5.82-.49,6.56-.58v.17a2.34,2.34,0,0,1-.48,1.34c-.75,1-2.42,1.48-4.77,1.47-1.33,0-4.59.13-5.91,1.7l-.06.06a3.74,3.74,0,0,1,.4-2.36A4.27,4.27,0,0,1,134.82,293ZM130.53,290c.53-.66,2.05-2.29,4-2.12l7.61.67v2.88l-6.59.6-.45,0-.31,0-.26,0C132.6,292.24,131.06,290.62,130.53,290Zm4.66-3c-1.89-.14-3.16-.73-3.78-1.76a3.74,3.74,0,0,1-.4-2.36l.06.06c1.32,1.57,4.58,1.72,5.91,1.7,2.37,0,4,.48,4.76,1.45a2.39,2.39,0,0,1,.49,1.36v.17C141.46,287.43,139.61,287.25,135.19,286.91Zm-5-2.12a4,4,0,0,0,.37.85,4.07,4.07,0,0,0,1.87,1.61,7.1,7.1,0,0,0-2.47,1.86C130,287.65,130.08,286.21,130.21,284.79Zm0,10.32c-.13-1.42-.21-2.85-.23-4.3a7.21,7.21,0,0,0,2.45,1.85,4.06,4.06,0,0,0-1.85,1.6A4,4,0,0,0,130.21,295.11Zm4.16,14.59a.49.49,0,0,0-.56-.31.51.51,0,0,0-.31.24,55.48,55.48,0,0,1-2.72-10.16.48.48,0,0,0,.24.07l.14,0a.48.48,0,0,0,.33-.55,1.51,1.51,0,0,1,.31-1.3c.87-1,3.24-1.38,5.17-1.35,2.72,0,4.59-.6,5.55-1.85l.15-.21a2.53,2.53,0,0,0,2.09,1.11,2.56,2.56,0,0,0,2.05-1.05,2.13,2.13,0,0,0,.43.53,3,3,0,0,0,2.08.71,3.62,3.62,0,0,0,.46,0l8.05-.6.77.53a9.63,9.63,0,0,1,3.33,3.23l-10,4.81a3.21,3.21,0,0,0-1.86,1.87,2.41,2.41,0,0,0-.11.68,2.32,2.32,0,0,0-.37-.13,2.53,2.53,0,0,0-3.1,1.79,2.72,2.72,0,0,0-.08.47l-.24-.1c-1.45-.6-3.38-.21-5.72,1.17-1.66,1-3.89,1.87-5.15,1.41A1.47,1.47,0,0,1,134.37,309.7Zm.59,1.88c1.93.7,4.82-.8,6-1.48,2-1.2,3.71-1.59,4.85-1.13A2.37,2.37,0,0,1,147,310v0c-.71.31-2.41,1.07-6.4,3-1.71.82-3.1.94-4.15.36a3.75,3.75,0,0,1-1.53-1.85Zm.24,2.12a3.71,3.71,0,0,0,.74.54,3.79,3.79,0,0,0,2.42.45,7.29,7.29,0,0,0-1.21,2.84C136.45,316.28,135.8,315,135.2,313.7Zm5.14,8.88c-.82-1.16-1.59-2.34-2.32-3.56a7.3,7.3,0,0,0,2.37.42,4.82,4.82,0,0,0,.65,0,4.16,4.16,0,0,0-.8,2.3A3.6,3.6,0,0,0,140.34,322.58ZM142,324a3.8,3.8,0,0,1-.83-2.25,4.27,4.27,0,0,1,2.08-3.2L144,318c3.36-2.29,4.78-3.32,5.38-3.76l.08.14a2.28,2.28,0,0,1,.26,1.4c-.16,1.23-1.34,2.49-3.4,3.66-1.16.66-3.91,2.41-4.27,4.43C142.05,323.91,142.05,323.94,142,324Zm9.21,9.21a.49.49,0,0,0-.64,0,.45.45,0,0,0-.16.32,58.13,58.13,0,0,1-7.4-7.4.53.53,0,0,0,.33-.15.49.49,0,0,0,0-.64,1.49,1.49,0,0,1-.38-1.28c.24-1.32,2.12-2.81,3.8-3.76,2.36-1.34,3.67-2.81,3.88-4.37a2.45,2.45,0,0,0,0-.27,2.5,2.5,0,0,0,2.37-.08,2.54,2.54,0,0,0,1.25-1.92,2.43,2.43,0,0,0,.64.24,2.33,2.33,0,0,0,.53.06,3.55,3.55,0,0,0,2-.74l7.11-4.85h0a11.42,11.42,0,0,0,2.37,5.35l-3.65,5.34a3.26,3.26,0,0,0-.68,2.55,2.44,2.44,0,0,0,.25.64,2.52,2.52,0,0,0-2.18,3.17,2.2,2.2,0,0,0,.17.45l-.26,0c-1.56.2-3,1.51-4.37,3.88-.95,1.68-2.43,3.56-3.75,3.8A1.5,1.5,0,0,1,151.25,333.18Zm1.45,1.34c2-.36,3.77-3.11,4.43-4.27,1.16-2.06,2.42-3.23,3.64-3.4a2.29,2.29,0,0,1,1.41.26l.15.08c-.47.62-1.55,2.13-4.05,5.79-1.07,1.56-2.22,2.37-3.42,2.38a3.8,3.8,0,0,1-2.25-.83Zm1.29,1.72a4.58,4.58,0,0,0,.83.09h.05a4.11,4.11,0,0,0,2.33-.81,7.06,7.06,0,0,0,.37,3.05C156.35,337.83,155.15,337.06,154,336.24Zm4.77-2.25,4.39-6.25,2.49,1.44-2.78,6c-.06.14-.13.27-.19.41s-.08.19-.13.28l-.11.24c-.83,1.78-3,2.29-3.85,2.42C158.28,337.74,157.64,335.61,158.76,334Zm.3,5.44a7,7,0,0,0,2.81-1.19,4,4,0,0,0,.47,2.4,4,4,0,0,0,.53.74Q160.94,340.48,159.06,339.43Zm4.12.74a4.26,4.26,0,0,1,.21-3.83l.35-.75c1.77-3.69,2.49-5.29,2.78-6l0,0a2.29,2.29,0,0,1,1,1.16c.46,1.14.08,2.82-1.12,4.85-.68,1.16-2.18,4-1.49,6l0,.09A3.78,3.78,0,0,1,163.18,340.17Zm14.42,4.91a.48.48,0,0,0-.54.33.44.44,0,0,0,.05.39,56.62,56.62,0,0,1-10.17-2.72.49.49,0,0,0,.24-.31.48.48,0,0,0-.31-.56,1.51,1.51,0,0,1-1-.92c-.45-1.26.43-3.49,1.41-5.15,1.38-2.35,1.78-4.28,1.18-5.73l-.11-.24a2.56,2.56,0,0,0,2-1.26,2.51,2.51,0,0,0,.11-2.29,2.75,2.75,0,0,0,.68-.11,3.24,3.24,0,0,0,1.87-1.86l.74-1.53a2.65,2.65,0,0,0,1.19.74v1.72a.56.56,0,0,0,.06.21,6.71,6.71,0,0,0-3.71,4,9.18,9.18,0,0,0-.32,1.92c-.15,1.33-.33,3-1.07,3.43a1.16,1.16,0,0,1-.84.07,3.16,3.16,0,0,1-.46-.16.5.5,0,0,0-.63.27.49.49,0,0,0,.26.63,3.81,3.81,0,0,0,.51.17l.71.2a2.21,2.21,0,0,0,.13,4.42h10.61c-.11,1.65-.49,3.36-1.32,4.06A1.53,1.53,0,0,1,177.6,345.08Zm1.86.48.07-.05c1.22-1,1.58-3.24,1.67-4.8h2.44c0,.22,0,.44,0,.67-.14,1.9-.74,3.17-1.76,3.78A3.77,3.77,0,0,1,179.46,345.56Zm2,.8a3.93,3.93,0,0,0,.88-.37,4,4,0,0,0,1.6-1.86,7,7,0,0,0,1.86,2.46C184.32,346.57,182.87,346.49,181.44,346.36Zm5.19-.31c-.66-.54-2.28-2.06-2.12-4l.12-1.31h4l0,.27c0,.16,0,.32,0,.48l0,.31,0,.25C188.92,344,187.29,345.51,186.63,346.05Zm.86.54a7.15,7.15,0,0,0,1.84-2.44,4.08,4.08,0,0,0,1.6,1.84,3.93,3.93,0,0,0,.88.37C190.38,346.49,188.94,346.57,187.49,346.59Zm3.94-1.43a4.25,4.25,0,0,1-1.73-3.41l-.08-.85v-.19h2.44c.09,1.56.45,3.77,1.67,4.8l.07.06A3.81,3.81,0,0,1,191.43,345.16Zm15.92-3.87a1.51,1.51,0,0,1-1,.92.48.48,0,0,0-.31.56.49.49,0,0,0,.24.31,56.62,56.62,0,0,1-10.17,2.72.44.44,0,0,0,.05-.39.48.48,0,0,0-.54-.33,1.5,1.5,0,0,1-1.3-.31c-.84-.7-1.22-2.41-1.33-4.06h10.7a2.21,2.21,0,0,0,2.22-2.21h0a2.22,2.22,0,0,0-2.16-2.22,6.81,6.81,0,0,0,.68-.19,3.81,3.81,0,0,0,.51-.17.49.49,0,0,0,.26-.63.5.5,0,0,0-.63-.27,3.16,3.16,0,0,1-.46.16,1.13,1.13,0,0,1-.83-.07c-.75-.44-.93-2.1-1.07-3.43a9.8,9.8,0,0,0-.33-1.92,6.73,6.73,0,0,0-3.64-3.94.48.48,0,0,0,.07-.24v-1.66a2.17,2.17,0,0,0,1.27-.48l.58,1.21a3.23,3.23,0,0,0,1.87,1.87,2.75,2.75,0,0,0,.68.11,3.84,3.84,0,0,0-.14.36,2.6,2.6,0,0,0,.25,1.93,2.55,2.55,0,0,0,2,1.25,2.56,2.56,0,0,0-.11.24c-.6,1.45-.2,3.38,1.18,5.73C206.92,337.8,207.81,340,207.35,341.29Zm.88.41,0-.09c.7-1.93-.81-4.81-1.49-6-1.2-2-1.58-3.71-1.12-4.85a2.29,2.29,0,0,1,1-1.16l0,0c.3.71,1.07,2.41,3,6.4.82,1.71.95,3.11.36,4.15A3.8,3.8,0,0,1,208.23,341.7Zm2.15-.32a3.94,3.94,0,0,0,1-3.16,7.06,7.06,0,0,0,2.83,1.2C213,340.12,211.68,340.77,210.38,341.38Zm4.3-2.85c-.84-.14-3-.65-3.85-2.43l-3.21-6.92,2.48-1.44,3.82,5.4.25.38c.06.09.12.16.19.25l.15.21C215.63,335.6,215,337.73,214.68,338.53Zm1,0a7.09,7.09,0,0,0,.37-3,4,4,0,0,0,2.31.8h.05a4.58,4.58,0,0,0,.83-.09C218.1,337.05,216.91,337.83,215.7,338.56Zm2.69-3.2c-1.12,0-2.19-.72-3.2-2.09l-.49-.69c-2.3-3.37-3.33-4.79-3.78-5.39l.16-.09a2.3,2.3,0,0,1,1.39-.26c1.22.17,2.49,1.34,3.65,3.41.66,1.16,2.41,3.91,4.43,4.27h.09A3.89,3.89,0,0,1,218.39,335.36Zm4.41-1.84a.45.45,0,0,0-.16-.32.49.49,0,0,0-.64,0,1.5,1.5,0,0,1-1.28.39c-1.32-.24-2.8-2.12-3.75-3.8-1.34-2.37-2.81-3.68-4.37-3.88l-.27,0a2.35,2.35,0,0,0,.17-.44,2.6,2.6,0,0,0-.25-1.93,2.53,2.53,0,0,0-1.93-1.24,2.73,2.73,0,0,0,.24-.64,3.19,3.19,0,0,0-.67-2.55l-3.6-5.28a11.27,11.27,0,0,0,2.41-5.35l7,4.79a3.57,3.57,0,0,0,2,.74,2.48,2.48,0,0,0,.54-.06,2.73,2.73,0,0,0,.64-.24,2.71,2.71,0,0,0,.06.38,2.53,2.53,0,0,0,3.56,1.62,2.28,2.28,0,0,0,0,.26c.21,1.56,1.52,3,3.89,4.37,1.68.95,3.55,2.44,3.79,3.76a1.49,1.49,0,0,1-.38,1.28.49.49,0,0,0,0,.64.53.53,0,0,0,.33.15A58.13,58.13,0,0,1,222.8,333.52Z" transform="translate(-121.83 -225.38)"/><path id="_Path_2" data-name="&lt;Path&gt;" class="cls-2" d="M206.37,293.3h0Z" transform="translate(-121.83 -225.38)"/></g><path class="cls-2" d="M186.61,225.38a64.78,64.78,0,1,0,64.78,64.78A64.78,64.78,0,0,0,186.61,225.38Zm0,127.56a62.78,62.78,0,1,1,62.77-62.78A62.77,62.77,0,0,1,186.61,352.94Z" transform="translate(-121.83 -225.38)"/></g><g id="Layer_4" data-name="Layer 4"><path class="cls-2" d="M277.85,248.22c4.93.24,8.1,1.87,9.54,4.91a11.39,11.39,0,0,1,.71,5.16v18.06H283v-19q0-4.59-5.73-4.59-4.48,0-5.59,2.3a10,10,0,0,0-.43,3.15v2.58a3.75,3.75,0,0,1,3-1.15h3.87v4.73h-3.3c-2.19,0-3.29.72-3.29,2.15-.17,0-.27.82-.29,2.44v7.38h-5v-19c0-4.16,2-7,6-8.46A19.25,19.25,0,0,1,277.85,248.22Z" transform="translate(-121.83 -225.38)"/><path class="cls-2" d="M302.61,248.22l.33,0q6.48.15,9.53,5a8,8,0,0,1,.75,3.19v10.39q0,5.13,3.33,5.13h.18c2.61,0,4.35-1.57,5.23-4.69l0-18.42h5.09v27.34H322v-1.54a9.83,9.83,0,0,1-5.73,1.82q-6.56,0-7.89-6.41a13.72,13.72,0,0,1-.14-1.9V257.61a4.28,4.28,0,0,0-3.65-4.52,5.34,5.34,0,0,0-1.83-.32h-.32Q298.68,253,297,255l3.22,1.9a4.3,4.3,0,0,0-2.79,4.08v10.5h2.79v4.7h-7.74V260.08a4,4,0,0,1,1.15-2.47v-.15l-2.33-1.32c.15-1.41,1.06-3.06,2.76-4.95A15.75,15.75,0,0,1,302.61,248.22Z" transform="translate(-121.83 -225.38)"/><path class="cls-2" d="M338.84,265.13v2.58H348l0,5.05h-7.6l-2.27,0a7.09,7.09,0,0,1-2.19-.34,3.49,3.49,0,0,1-1.93-1.58,5.65,5.65,0,0,1-.7-3.29v-2.44Zm.07-13.65v2.58h9.28l-.07,5.05h-7.59l-2.24,0a7,7,0,0,1-2.21-.36,3.59,3.59,0,0,1-1.95-1.58,5.72,5.72,0,0,1-.7-3.31v-2.4Z" transform="translate(-121.83 -225.38)"/><path class="cls-2" d="M362.21,247.9h1q7.49,0,10,7a20,20,0,0,1,1,6.59v.72q0,14-11.76,14a15.3,15.3,0,0,1-7.59-2.43V268.1H355a9.55,9.55,0,0,0,7.31,3.44h.86c2.56,0,4.37-1.57,5.45-4.73a21.18,21.18,0,0,0,.43-3.72v-2.15c0-4.76-1.73-7.53-5.16-8.31h-2c-2.2,0-4.49,1.09-6.88,3.29h-.14v-5.44A11.91,11.91,0,0,1,362.21,247.9Z" transform="translate(-121.83 -225.38)"/><path class="cls-2" d="M355.79,241h19.06v4.29h-21.5V245A27.5,27.5,0,0,1,355.79,241Z" transform="translate(-121.83 -225.38)"/><path class="cls-2" d="M393.24,248c3.84,0,6.38,1.67,7.59,5a17.92,17.92,0,0,1,.58,5.15v17.92h-5.16V257.07q0-4.31-3.59-4.3H392q-4.09,0-6.45,4.87a7.28,7.28,0,0,0-.15,1.29v17.2h-5.16V252.19c0-1.33-.9-2.34-2.72-3v-.72h7.88v2.58A11.22,11.22,0,0,1,393.24,248Z" transform="translate(-121.83 -225.38)"/><path class="cls-2" d="M415.74,248.61h1a14.71,14.71,0,0,1,2.87.29v4.73l-1-.29-1-.07c-2.77,0-4.17.88-4.19,2.51s.8,2.43,2.47,2.43H418c.22,0,.89,1.49,2,4.45-1.19-.1-1.82-.14-1.86-.14q-4.77.39-5.81,4.65v.4c.15,2.94,2,4.41,5.52,4.41h6.16V248.75h7.89v.86a3.17,3.17,0,0,0-2.73,3.3v23.65H417.75q-10.32,0-10.32-8.89a7.62,7.62,0,0,1,3.44-6.73q-3-2.32-3-4.73v-1.15c0-2.87,1.76-4.92,5.3-6.16A13.39,13.39,0,0,1,415.74,248.61Z" transform="translate(-121.83 -225.38)"/><path class="cls-2" d="M443.33,248.5q9.46,0,9.46,9.75V273.3a2.75,2.75,0,0,0,1.86,2.58v.72h-7V257.53c0-2.86-1.72-4.3-5.16-4.3q-2.87,0-6.88,2.58v-5.3A18.6,18.6,0,0,1,443.33,248.5Z" transform="translate(-121.83 -225.38)"/><path class="cls-2" d="M473.83,246.6h5.33v1a4.51,4.51,0,0,1-1.43,2.9,7.42,7.42,0,0,1,3,6.38V273a2.83,2.83,0,0,0,1.86,2.76v.71h-6.95V257c0-2.79-1.86-4.3-5.59-4.51l-1,0q-5.08.28-5.09,4.34v3.9a3.22,3.22,0,0,1,2.15-1h4.66v3.76l-.14,1h-3.95c-1.57,0-2.48,1-2.72,2.9v9h-5.23V258.79q0-6.14,2.76-8a12.25,12.25,0,0,1,7.95-2.76,9,9,0,0,1,3.62.46A1.87,1.87,0,0,0,473.83,246.6Z" transform="translate(-121.83 -225.38)"/><path class="cls-2" d="M493.68,248.5q9.45,0,9.46,9.75V273.3a2.75,2.75,0,0,0,1.86,2.58v.72h-7V257.53c0-2.86-1.72-4.3-5.16-4.3q-2.88,0-6.88,2.58v-5.3A18.53,18.53,0,0,1,493.68,248.5Z" transform="translate(-121.83 -225.38)"/><path class="cls-2" d="M524.74,246.53h5.16v1.15a5.34,5.34,0,0,1-1.57,3,7.79,7.79,0,0,1,2.29,5.45v16.05a3.87,3.87,0,0,0,2,3.44v.43h-4.45c-1.62-.38-2.43-1.53-2.43-3.44V262a57.07,57.07,0,0,1-10.32,1.87,4.22,4.22,0,0,0-3.3,4.3q0,3.58,4.59,3.58a26.81,26.81,0,0,0,4.73-.72v4.88c-1.25.19-2.87.33-4.88.43q-6.66,0-8.74-4.73a12.3,12.3,0,0,1-.57-3.59v-.14q0-6.81,7.31-8.6,10.45-1,10.46-2a2.39,2.39,0,0,0,.43-1.14v-.58c-.5-1.91-2.37-2.86-5.59-2.86h-.43c-3.35,0-5.45,1.14-6.31,3.44-.09.67-.24,1-.43,1H508q0-5.83,7.17-8.6a28.14,28.14,0,0,1,4.59-.57,13.17,13.17,0,0,1,4,.57C524.41,248.35,524.74,247.68,524.74,246.53Z" transform="translate(-121.83 -225.38)"/><path class="cls-2" d="M548.25,248a38.83,38.83,0,0,0,3.44,3,30.05,30.05,0,0,1,2.72-2.44h4.73v24.51c0,.76.62,1.62,1.87,2.58v.29c0,.19-.1.28-.29.28h-2.58c-1.93,0-3.13-.43-3.58-1.29a6.6,6.6,0,0,1-.58-2.43V254.85l-2.29,2h-.14l-4.45-3.58c-1.84.48-3.56,2-5.16,4.73a14.51,14.51,0,0,0-.86,4.73q0,6.16,5.31,8.6a11.12,11.12,0,0,0,2.15.29H549a11.33,11.33,0,0,0,2.72-.29v4.73l-2.87.29q-9.5,0-12.32-9.61a23.81,23.81,0,0,1-.43-4.44q0-10,10.32-13.9A9.84,9.84,0,0,1,548.25,248Z" transform="translate(-121.83 -225.38)"/><path class="cls-2" d="M572.94,248.11h2.15a12.61,12.61,0,0,1,8.63,3v5.37q-3.9-3.76-8.09-3.76h-1.8q-4,0-4.47,3V256c0,1.08,2.62,2,7.88,2.69q7.56,2,7.56,8.82,0,5.91-5.73,8.24a15.29,15.29,0,0,1-4.52.71h-1.07a16.14,16.14,0,0,1-8.78-2.5V268a11.6,11.6,0,0,0,9,4c4.08,0,6.12-1.56,6.12-4.66q0-3.92-7.2-4.66-8.24-1.26-8.24-7v-.17Q564.34,249.4,572.94,248.11Z" transform="translate(-121.83 -225.38)"/><path class="cls-2" d="M583.65,240.05h6.6l-2.44,4.15h-1.72c-1.34,0-2,.53-2,1.58v.86h-5.16v-1.15q0-4.34,3.16-5.26A8.19,8.19,0,0,1,583.65,240.05Z" transform="translate(-121.83 -225.38)"/><path class="cls-2" d="M598.17,275.49v.93c-3,0-4.93,0-5.74,0a2.06,2.06,0,0,1-1.79-1,5.42,5.42,0,0,1-.54-2.8V247.75h5.56v23.83C595.87,273.87,596.71,275.18,598.17,275.49Zm10.89.1v.94c-3,0-4.92,0-5.73,0a2.08,2.08,0,0,1-1.8-1,5.33,5.33,0,0,1-.53-2.8V247.86h5.55v23.83Q606.87,275.13,609.06,275.59Z" transform="translate(-121.83 -225.38)"/><path class="cls-2" d="M624.36,248.07q8.1,0,10.61,5.59a11.45,11.45,0,0,1,.43,3v16.06a2.84,2.84,0,0,0,1.86,2.72v.72H633q-2.22,0-2.58-4.16v-9.89q-2.58,1-10.18,1.86a4.19,4.19,0,0,0-3.29,4.3,3.36,3.36,0,0,0,2.86,3.44,10.79,10.79,0,0,1,1.58.15,31.52,31.52,0,0,0,4.87-.72V276a44.36,44.36,0,0,1-4.87.43q-7.85,0-9.17-6.3a11.69,11.69,0,0,1-.15-1.87v-.86q0-5.66,6.31-7.74,2.68-.57,9.46-1.29c1.62-.55,2.44-1.26,2.44-2.15v-.43q0-2.51-5.31-3h-.71q-5.06,0-6.31,3.44c-.12.67-.26,1-.43,1h-4.87q0-2.87,2.86-6.17A13.84,13.84,0,0,1,624.36,248.07Z" transform="translate(-121.83 -225.38)"/><path class="cls-2" d="M646.79,265.13v2.58H656l0,5.05h-7.6l-2.27,0a7.09,7.09,0,0,1-2.19-.34,3.49,3.49,0,0,1-1.93-1.58,5.65,5.65,0,0,1-.7-3.29v-2.44Zm.07-13.65v2.58h9.28l-.07,5.05h-7.6l-2.23,0a7,7,0,0,1-2.21-.36,3.59,3.59,0,0,1-1.95-1.58,5.65,5.65,0,0,1-.7-3.31v-2.4Z" transform="translate(-121.83 -225.38)"/><path class="cls-2" d="M669.72,275.49v.93c-3,0-4.92,0-5.73,0a2.06,2.06,0,0,1-1.79-1,5.42,5.42,0,0,1-.54-2.8V247.75h5.56v23.83C667.43,273.87,668.27,275.18,669.72,275.49Z" transform="translate(-121.83 -225.38)"/><path class="cls-2" d="M687,248q5.78,0,7.6,5a18.34,18.34,0,0,1,.57,5.15v17.92H690V257.07q0-4.31-3.58-4.3h-.72q-4.08,0-6.45,4.87a7.12,7.12,0,0,0-.14,1.29v17.2H674V252.19c0-1.33-.91-2.34-2.73-3v-.72h7.89v2.58A11.18,11.18,0,0,1,687,248Z" transform="translate(-121.83 -225.38)"/><path class="cls-2" d="M714.41,248.22q7.38.36,9.53,4.91a11.36,11.36,0,0,1,.72,5.16v18.06h-5.09v-19q0-4.59-5.74-4.59c-3,0-4.85.77-5.59,2.3a10.24,10.24,0,0,0-.43,3.15v2.58a3.75,3.75,0,0,1,3-1.15h3.87v4.73H711.4c-2.2,0-3.3.72-3.3,2.15-.17,0-.26.82-.29,2.44v7.38h-5v-19c0-4.16,2-7,6-8.46A19.15,19.15,0,0,1,714.41,248.22Z" transform="translate(-121.83 -225.38)"/><path class="cls-2" d="M733.58,235.46c-.17.34.17.85,1,1.54a7.05,7.05,0,0,1,1.6,3.05,19.31,19.31,0,0,1,.32,2.49c0,.7,0,1.7,0,3v26q0,2.94,3.33,3.83v1h-8.7l0-31.64a15.55,15.55,0,0,0-.32-2.15,4.4,4.4,0,0,0-.52-1.27c-.23-.37-.58-.88-1.06-1.54a11.61,11.61,0,0,0-3.62-2.53,18,18,0,0,1,1.19-3.58,8.44,8.44,0,0,1,1.61-2.37,3.59,3.59,0,0,1,2-1.09,28.08,28.08,0,0,1,2.82-.23h13.07l-2,4.84h-9.57A1.46,1.46,0,0,0,733.58,235.46Z" transform="translate(-121.83 -225.38)"/><path class="cls-2" d="M741.07,248.29h7.77v19.64q0,4.05,3.91,4.05c3,0,5.25-1.62,6.88-4.84a12,12,0,0,0,.29-2.65v-16.2h5v24.15a3,3,0,0,0,2.62,3v.75h-7.63v-2.8a11.76,11.76,0,0,1-8.1,3.12q-8.1,0-8.1-9.5V251.87c0-1.26-.89-2.26-2.65-3Z" transform="translate(-121.83 -225.38)"/><path class="cls-2" d="M774.75,235.46c-.17.34.17.85,1,1.54a7,7,0,0,1,1.6,3.05,19.31,19.31,0,0,1,.32,2.49c0,.7,0,1.7,0,3v26q0,2.94,3.34,3.83v1h-8.71l0-31.64a15.55,15.55,0,0,0-.32-2.15,4.4,4.4,0,0,0-.52-1.27c-.23-.37-.58-.88-1.06-1.54a11.48,11.48,0,0,0-3.62-2.53,18,18,0,0,1,1.19-3.58,8.44,8.44,0,0,1,1.61-2.37,3.62,3.62,0,0,1,2-1.09,28.08,28.08,0,0,1,2.82-.23h13.08l-2,4.84h-9.57A1.46,1.46,0,0,0,774.75,235.46Z" transform="translate(-121.83 -225.38)"/><path class="cls-2" d="M796,248.07q8.1,0,10.61,5.59a11.05,11.05,0,0,1,.43,3v16.06a2.84,2.84,0,0,0,1.86,2.72v.72h-4.3q-2.22,0-2.58-4.16v-9.89q-2.58,1-10.17,1.86a4.2,4.2,0,0,0-3.3,4.3c0,1.77,1,2.92,2.87,3.44a10.67,10.67,0,0,1,1.57.15,31.64,31.64,0,0,0,4.88-.72V276a44.82,44.82,0,0,1-4.88.43q-7.85,0-9.17-6.3a11.69,11.69,0,0,1-.14-1.87v-.86q0-5.66,6.3-7.74c1.79-.38,4.95-.81,9.46-1.29,1.63-.55,2.44-1.26,2.44-2.15v-.43q0-2.51-5.3-3h-.72q-5.05,0-6.31,3.44c-.12.67-.26,1-.43,1h-4.87q0-2.87,2.87-6.17A13.81,13.81,0,0,1,796,248.07Z" transform="translate(-121.83 -225.38)"/><path class="cls-2" d="M820.58,248.61h1a14.71,14.71,0,0,1,2.87.29v4.73l-1-.29-1-.07c-2.77,0-4.17.88-4.19,2.51s.8,2.43,2.47,2.43h2.15c.22,0,.89,1.49,2,4.45-1.19-.1-1.82-.14-1.86-.14q-4.77.39-5.81,4.65v.4c.15,2.94,2,4.41,5.52,4.41h6.16V248.75h7.89v.86a3.17,3.17,0,0,0-2.73,3.3v23.65H822.59q-10.32,0-10.32-8.89a7.62,7.62,0,0,1,3.44-6.73q-3-2.32-3-4.73v-1.15c0-2.87,1.76-4.92,5.3-6.16A13.47,13.47,0,0,1,820.58,248.61Z" transform="translate(-121.83 -225.38)"/><path class="cls-2" d="M836.45,238v7.17H815.1l3.69-4.15h12.72v-3Z" transform="translate(-121.83 -225.38)"/></g><g id="Layer_5" data-name="Layer 5"><path class="cls-2" d="M266.43,306.47h15.81v3.68h-9.57V315h7.26v3.69h-7.26v9.46h-4.26v-19c0-.85-.73-1.58-2.2-2.2v-.47Z" transform="translate(-121.83 -225.38)"/><path class="cls-2" d="M284.72,306.44h8.17L299,328.06h-4.24l-1.15-4.6h-6.66l-1.15,4.6H281.5L286.92,309c-.18-.93-.92-1.58-2.2-2Zm5.53,4.59-2.31,8.86h4.73L290.36,311Z" transform="translate(-121.83 -225.38)"/><path class="cls-2" d="M310.46,306.22a7.08,7.08,0,0,1,7.09,4.57,5.17,5.17,0,0,0,.33,1.26,30.66,30.66,0,0,1-4,.91v-.11q-1-2.87-3.55-2.86h-.58q-3.21,0-3.77,6.41v1q0,7.21,4.46,7.21c1.7,0,3-1.06,3.87-3.19q3.75,1,4,1-2,5.82-7.78,5.83h-.22q-6.14,0-8.11-6.3a19.45,19.45,0,0,1-.58-4.79c0-5.51,1.9-9,5.72-10.5A12.55,12.55,0,0,1,310.46,306.22Z" transform="translate(-121.83 -225.38)"/><path class="cls-2" d="M319.81,306.74h6.38v13.78c0,1.82.53,3.08,1.6,3.8a6.19,6.19,0,0,0,2.5.52,3.37,3.37,0,0,0,3.74-3,16.69,16.69,0,0,0,.11-1.71V306.74h4.21v13.53q0,5.78-4.76,7.62a9.52,9.52,0,0,1-3,.47h-.91q-6.34,0-7.62-6.27a10.47,10.47,0,0,1-.11-1.46V310a2.53,2.53,0,0,0-2.17-2.72Z" transform="translate(-121.83 -225.38)"/><path class="cls-2" d="M340.8,306.44h6.32v17.82h9.11c.14,0,.22.09.22.22v3.36a.2.2,0,0,1-.22.22H343c-.17,0-.25-.08-.25-.22V309.19c0-.93-.72-1.69-2.17-2.28v-.47Z" transform="translate(-121.83 -225.38)"/><path class="cls-2" d="M356.77,306.47h16.34V310h-6v18h-4.23V310H360a2.75,2.75,0,0,0-2.75,2.18h-.47Z" transform="translate(-121.83 -225.38)"/><path class="cls-2" d="M374.29,306.58h5.77q3.56,8.16,3.55,8.36h.11l3.55-8.36h4.34l-5.83,13.12v8.38h-4.23v-8.36q0-.24-3-6.62-2.76-5.81-4.29-6.05Z" transform="translate(-121.83 -225.38)"/><path class="cls-2" d="M412.84,306.11q6.93,0,8.63,7.51a22.28,22.28,0,0,1,.22,2.83v1.38q0,7.37-5.55,9.76a12.88,12.88,0,0,1-3.19.47h-.33q-6.24,0-8.2-6.14a20.8,20.8,0,0,1-.69-4.78q0-8.25,5.81-10.56A17.34,17.34,0,0,1,412.84,306.11Zm-4.79,11.14q0,7.17,5,7.18c1.87,0,3.2-1.18,4-3.52a13.72,13.72,0,0,0,.34-2.86v-2c0-2.82-.88-4.76-2.62-5.8a5.22,5.22,0,0,0-1.37-.36h-1Q408.05,309.85,408.05,317.25Z" transform="translate(-121.83 -225.38)"/><path class="cls-2" d="M422.3,306.47h15.82v3.68h-9.57V315h7.26v3.69h-7.26v9.46h-4.27v-19c0-.85-.73-1.58-2.2-2.2v-.47Z" transform="translate(-121.83 -225.38)"/><path class="cls-2" d="M454.47,306.55h.68a10.63,10.63,0,0,1,6.41,1.79v3.93a11.2,11.2,0,0,0-7-2.34c-2,.24-3.05.88-3.05,1.9v.11q0,1.6,3.6,2.59,7.55,2.64,7.54,7.09a5.93,5.93,0,0,1-4.62,6.19,14.4,14.4,0,0,1-3.25.44,10,10,0,0,1-6.76-2.81l-.11-.22v-4.51q3.46,3.94,7,3.94h.44a3.26,3.26,0,0,0,3.17-1.79l.11-.8v-.55q0-1.92-7-4.4-4.16-2.08-4.15-5.28c0-2.38,1.57-4.07,4.73-5.06A12.12,12.12,0,0,1,454.47,306.55Z" transform="translate(-121.83 -225.38)"/><path class="cls-2" d="M473.43,306.22a7.08,7.08,0,0,1,7.09,4.57,5.17,5.17,0,0,0,.33,1.26,30.23,30.23,0,0,1-4,.91v-.11c-.69-1.91-1.88-2.86-3.54-2.86h-.58c-2.15,0-3.4,2.14-3.77,6.41v1q0,7.21,4.46,7.21,2.55,0,3.87-3.19c2.5.68,3.83,1,4,1q-2,5.82-7.78,5.83h-.22q-6.13,0-8.12-6.3a19.94,19.94,0,0,1-.57-4.79c0-5.51,1.9-9,5.72-10.5A12.49,12.49,0,0,1,473.43,306.22Z" transform="translate(-121.83 -225.38)"/><path class="cls-2" d="M483.4,306.63h6.1v21.62h-4V309.38c0-1-.69-1.69-2.06-2.17Z" transform="translate(-121.83 -225.38)"/><path class="cls-2" d="M493.54,306.47h16.61v3.68H500V315h7.15l.25,0v3.66H500v5.77h10.39v3.69H495.74V309.82a2.45,2.45,0,0,0-2.2-2.77Z" transform="translate(-121.83 -225.38)"/><path class="cls-2" d="M513.19,306.39h6.46l8.31,14.3h.11v-14.3h4.15v21.69h-4l-8.66-15h-.11v15h-4V309.74a2.7,2.7,0,0,0-2.2-2.78Z" transform="translate(-121.83 -225.38)"/><path class="cls-2" d="M544,306.22a7.08,7.08,0,0,1,7.09,4.57,5.17,5.17,0,0,0,.33,1.26,30.23,30.23,0,0,1-4,.91v-.11c-.69-1.91-1.88-2.86-3.54-2.86h-.58c-2.15,0-3.4,2.14-3.77,6.41v1q0,7.21,4.46,7.21,2.55,0,3.87-3.19,3.75,1,4,1-2,5.82-7.78,5.83h-.22q-6.14,0-8.12-6.3a19.94,19.94,0,0,1-.57-4.79c0-5.51,1.9-9,5.72-10.5A12.49,12.49,0,0,1,544,306.22Z" transform="translate(-121.83 -225.38)"/><path class="cls-2" d="M553.35,306.47H570v3.68H559.82V315H567l.24,0v3.66h-7.39v5.77h10.39v3.69H555.55V309.82a2.44,2.44,0,0,0-2.2-2.77Z" transform="translate(-121.83 -225.38)"/><path class="cls-2" d="M584.27,306.44h8.17l6.07,21.62h-4.23l-1.16-4.6h-6.65l-1.16,4.6h-4.26L586.47,309c-.18-.93-.92-1.58-2.2-2ZM589.8,311l-2.31,8.86h4.73L589.91,311Z" transform="translate(-121.83 -225.38)"/><path class="cls-2" d="M599.41,306.39h6.47l8.3,14.3h.11v-14.3h4.15v21.69h-4l-8.66-15h-.11v15h-4V309.74a2.69,2.69,0,0,0-2.2-2.78Z" transform="translate(-121.83 -225.38)"/><path class="cls-2" d="M620.05,306.55h7.48q7.29,0,9.22,3.33,2.18,2.64,2.17,7.48,0,9-7.23,10.59a10.16,10.16,0,0,1-2.2.22H622V309.44c0-1.06-.73-1.83-2.18-2.31v-.58Zm6.33,3.8v14.13h2.2c2.86,0,4.66-1,5.39-3.11a12.21,12.21,0,0,0,.58-3.9v-.22q0-6.9-5.17-6.9Z" transform="translate(-121.83 -225.38)"/><path class="cls-2" d="M647.14,306.47h16.34V310h-6v18h-4.23V310h-2.89a2.75,2.75,0,0,0-2.75,2.18h-.47Z" transform="translate(-121.83 -225.38)"/><path class="cls-2" d="M664.07,306.47h16.61v3.68H670.54V315h7.15l.24,0v3.66h-7.39v5.77h10.39v3.69H666.27V309.82a2.44,2.44,0,0,0-2.2-2.77Z" transform="translate(-121.83 -225.38)"/><path class="cls-2" d="M691.69,306.22a7.08,7.08,0,0,1,7.09,4.57,5.17,5.17,0,0,0,.33,1.26,30.66,30.66,0,0,1-4,.91v-.11q-1.05-2.87-3.55-2.86H691q-3.21,0-3.77,6.41v1q0,7.21,4.46,7.21c1.7,0,3-1.06,3.88-3.19,2.49.68,3.83,1,4,1q-2,5.82-7.78,5.83h-.22q-6.14,0-8.11-6.3a19.45,19.45,0,0,1-.58-4.79c0-5.51,1.9-9,5.72-10.5A12.55,12.55,0,0,1,691.69,306.22Z" transform="translate(-121.83 -225.38)"/><path class="cls-2" d="M700.86,306.39h6.46v8.55h8.09v-8.55h4.26v21.69h-4.26v-9.24h-8.09v9.24H703V308.92c0-.75-.7-1.41-2.09-2Z" transform="translate(-121.83 -225.38)"/><path class="cls-2" d="M721.15,306.39h6.46l8.3,14.3H736v-14.3h4.16v21.69h-4l-8.66-15h-.11v15h-4V309.74a2.7,2.7,0,0,0-2.2-2.78Z" transform="translate(-121.83 -225.38)"/><path class="cls-2" d="M752,306.11q6.93,0,8.63,7.51a22.28,22.28,0,0,1,.22,2.83v1.38q0,7.37-5.55,9.76a12.88,12.88,0,0,1-3.19.47h-.33q-6.24,0-8.2-6.14a20.8,20.8,0,0,1-.69-4.78q0-8.25,5.81-10.56A17.34,17.34,0,0,1,752,306.11Zm-4.79,11.14q0,7.17,5,7.18c1.87,0,3.2-1.18,4-3.52a14.35,14.35,0,0,0,.33-2.86v-2c0-2.82-.87-4.76-2.61-5.8a5.22,5.22,0,0,0-1.37-.36h-1Q747.25,309.85,747.25,317.25Z" transform="translate(-121.83 -225.38)"/><path class="cls-2" d="M762.92,306.44h6.32v17.82h9.11c.14,0,.22.09.22.22v3.36a.2.2,0,0,1-.22.22H765.12c-.17,0-.25-.08-.25-.22V309.19c0-.93-.72-1.69-2.17-2.28v-.47Z" transform="translate(-121.83 -225.38)"/><path class="cls-2" d="M788.1,306.11q6.93,0,8.63,7.51a22.28,22.28,0,0,1,.22,2.83v1.38q0,7.37-5.55,9.76a13,13,0,0,1-3.19.47h-.33q-6.25,0-8.2-6.14a20.8,20.8,0,0,1-.69-4.78q0-8.25,5.81-10.56A17.14,17.14,0,0,1,788.1,306.11Zm-4.79,11.14q0,7.17,5,7.18c1.87,0,3.19-1.18,4-3.52a14.35,14.35,0,0,0,.33-2.86v-2c0-2.82-.87-4.76-2.61-5.8a5.31,5.31,0,0,0-1.37-.36h-1Q783.31,309.85,783.31,317.25Z" transform="translate(-121.83 -225.38)"/><path class="cls-2" d="M809,306.25q5.71,0,7.78,5.5l0,.14-4.07,1A4,4,0,0,0,808.8,310l-.3,0q-3.6,0-4.15,6.71v.44c0,3.71.94,6.05,2.83,7a4,4,0,0,0,1.46.33,3.87,3.87,0,0,0,4.18-3.85h-4v-3.74H817v11h-3.17V326a7,7,0,0,1-5.11,2.14h-.33a7.4,7.4,0,0,1-7-4.32,13.65,13.65,0,0,1-1.35-6.21q0-8.67,6-10.89A9.49,9.49,0,0,1,809,306.25Z" transform="translate(-121.83 -225.38)"/><path class="cls-2" d="M817.7,306.58h5.78c2.36,5.44,3.55,8.23,3.55,8.36h.1l3.55-8.36H835L829.2,319.7v8.38H825v-8.36q0-.24-3-6.62-2.75-5.81-4.29-6.05Z" transform="translate(-121.83 -225.38)"/></g></svg>